%TF.GenerationSoftware,Altium Limited,Altium Designer,23.9.2 (47)*%
G04 Layer_Physical_Order=1*
G04 Layer_Color=255*
%FSLAX45Y45*%
%MOMM*%
%TF.SameCoordinates,069DA617-DDAF-4FD6-95A1-D134820B9D42*%
%TF.FilePolarity,Positive*%
%TF.FileFunction,Copper,L1,Top,Signal*%
%TF.Part,Single*%
G01*
G75*
%TA.AperFunction,Conductor*%
%ADD10C,0.25400*%
%TA.AperFunction,ComponentPad*%
%ADD11C,1.65100*%
%ADD12C,1.52400*%
%ADD13R,1.52400X1.52400*%
%ADD14C,1.30800*%
%ADD15R,1.30800X1.30800*%
D10*
X1539880Y1124997D02*
X2139879Y524998D01*
X1300003Y1124997D02*
X1539880D01*
X2139879Y524998D02*
X5125000D01*
X1299998Y575000D02*
X1585296Y289702D01*
X5489703D01*
X3675357Y1050000D02*
X4225000D01*
X4746004Y925000D02*
X4763004Y942000D01*
X4225000Y1050000D02*
X4350000Y925000D01*
X4746004D01*
X2675357Y2050000D02*
X3675357Y1050000D01*
X1449999Y2050000D02*
X2675357D01*
X1299998Y2200001D02*
X1449999Y2050000D01*
X4300000Y2675000D02*
X4412000Y2787000D01*
X4300000Y1775000D02*
Y2675000D01*
X4412000Y2787000D02*
X4649998D01*
X4300000Y1775000D02*
X4400000Y1675000D01*
X5550003Y350003D02*
Y688000D01*
X5489703Y289702D02*
X5550003Y350003D01*
X5125000Y524998D02*
X5125000Y524998D01*
X4874998Y2250000D02*
X4900000D01*
Y3299999D02*
X5125000D01*
X4900000Y2250000D02*
Y3299999D01*
X4599999D02*
X4900000D01*
Y2250000D02*
X5475000D01*
X4498002Y3198002D02*
X4599999Y3299999D01*
X3974999Y3198002D02*
X4498002D01*
X4400000Y1675000D02*
X4925000D01*
X5025000Y1575000D01*
Y725000D02*
Y1575000D01*
X4988000Y688000D02*
X5025000Y725000D01*
X4763004Y688000D02*
X4988000D01*
X4649998Y2025000D02*
X4874998Y2250000D01*
X5475000D02*
X5550003Y2174997D01*
Y1450000D02*
Y2174997D01*
X4763004Y1420002D02*
Y1450000D01*
X3974999Y1420002D02*
X4763004D01*
X5543500Y948502D02*
X5550003Y942000D01*
X5543500Y948502D02*
Y1189497D01*
X5550003Y1196000D01*
X5125000Y524998D02*
Y2025000D01*
X1061000Y3198002D02*
X2450999D01*
X537998Y2675001D02*
X1061000Y3198002D01*
X1299998Y2675001D02*
X1449457Y2824460D01*
X2851720D01*
X3860100Y3832840D01*
X4895841D01*
X5125000Y4061999D01*
X4763004Y1196000D02*
Y1420002D01*
X5125000Y2787000D02*
Y3299999D01*
X1299998Y2200001D02*
Y2675001D01*
Y575000D02*
X1300003Y1124997D01*
X537998Y848340D02*
X538003Y1124997D01*
X537998Y575000D02*
Y848340D01*
Y2200001D02*
X538003Y1124997D01*
X537998Y2200001D02*
Y2675001D01*
D11*
X3974999Y4214002D02*
D03*
X2450999D02*
D03*
Y150002D02*
D03*
X3974999D02*
D03*
D12*
X2450999Y404002D02*
D03*
Y658002D02*
D03*
Y912002D02*
D03*
Y1166002D02*
D03*
Y1420002D02*
D03*
Y1674002D02*
D03*
Y1928002D02*
D03*
Y2182002D02*
D03*
Y2436002D02*
D03*
Y2690002D02*
D03*
Y2944002D02*
D03*
Y3198002D02*
D03*
Y3452002D02*
D03*
Y3706002D02*
D03*
Y3960002D02*
D03*
X3974999D02*
D03*
Y3706002D02*
D03*
Y3452002D02*
D03*
Y3198002D02*
D03*
Y2944002D02*
D03*
Y2690002D02*
D03*
Y2436002D02*
D03*
Y2182002D02*
D03*
Y1928002D02*
D03*
Y1674002D02*
D03*
Y1420002D02*
D03*
Y1166002D02*
D03*
Y912002D02*
D03*
Y658002D02*
D03*
X4649998Y2787000D02*
D03*
Y2025000D02*
D03*
X5125000Y4061999D02*
D03*
Y3299999D02*
D03*
Y2025000D02*
D03*
Y2787000D02*
D03*
X1300003Y1124997D02*
D03*
X538003D02*
D03*
X1299998Y2675001D02*
D03*
X537998D02*
D03*
Y2200001D02*
D03*
X1299998D02*
D03*
Y575000D02*
D03*
X537998D02*
D03*
D13*
X3974999Y404002D02*
D03*
D14*
X4763004Y942000D02*
D03*
Y1196000D02*
D03*
Y688000D02*
D03*
X5550003D02*
D03*
Y1450000D02*
D03*
Y942000D02*
D03*
Y1196000D02*
D03*
D15*
X4763004Y1450000D02*
D03*
%TF.MD5,64718180dc7be07fa347d0b01d5d7d4f*%
M02*
