%TF.GenerationSoftware,Altium Limited,Altium Designer,23.9.2 (47)*%
G04 Layer_Physical_Order=2*
G04 Layer_Color=16711680*
%FSLAX45Y45*%
%MOMM*%
%TF.SameCoordinates,069DA617-DDAF-4FD6-95A1-D134820B9D42*%
%TF.FilePolarity,Positive*%
%TF.FileFunction,Copper,L2,Bot,Signal*%
%TF.Part,Single*%
G01*
G75*
%TA.AperFunction,Conductor*%
%ADD10C,0.25400*%
%TA.AperFunction,ComponentPad*%
%ADD11C,1.65100*%
%ADD12C,1.52400*%
%ADD13R,1.52400X1.52400*%
%ADD14C,1.30800*%
%ADD15R,1.30800X1.30800*%
D10*
X4460121Y1164879D02*
Y1166002D01*
Y1164879D02*
X4550000Y1075000D01*
X5175000D01*
X3974999Y1166002D02*
X4460121D01*
X5175000Y1075000D02*
X5296000Y1196000D01*
X5550003D01*
X3974999Y3706002D02*
X4649998Y3031004D01*
Y2787000D02*
Y3031004D01*
D11*
X3974999Y4214002D02*
D03*
X2450999D02*
D03*
Y150002D02*
D03*
X3974999D02*
D03*
D12*
X2450999Y404002D02*
D03*
Y658002D02*
D03*
Y912002D02*
D03*
Y1166002D02*
D03*
Y1420002D02*
D03*
Y1674002D02*
D03*
Y1928002D02*
D03*
Y2182002D02*
D03*
Y2436002D02*
D03*
Y2690002D02*
D03*
Y2944002D02*
D03*
Y3198002D02*
D03*
Y3452002D02*
D03*
Y3706002D02*
D03*
Y3960002D02*
D03*
X3974999D02*
D03*
Y3706002D02*
D03*
Y3452002D02*
D03*
Y3198002D02*
D03*
Y2944002D02*
D03*
Y2690002D02*
D03*
Y2436002D02*
D03*
Y2182002D02*
D03*
Y1928002D02*
D03*
Y1674002D02*
D03*
Y1420002D02*
D03*
Y1166002D02*
D03*
Y912002D02*
D03*
Y658002D02*
D03*
X4649998Y2787000D02*
D03*
Y2025000D02*
D03*
X5125000Y4061999D02*
D03*
Y3299999D02*
D03*
Y2025000D02*
D03*
Y2787000D02*
D03*
X1300003Y1124997D02*
D03*
X538003D02*
D03*
X1299998Y2675001D02*
D03*
X537998D02*
D03*
Y2200001D02*
D03*
X1299998D02*
D03*
Y575000D02*
D03*
X537998D02*
D03*
D13*
X3974999Y404002D02*
D03*
D14*
X4763004Y942000D02*
D03*
Y1196000D02*
D03*
Y688000D02*
D03*
X5550003D02*
D03*
Y1450000D02*
D03*
Y942000D02*
D03*
Y1196000D02*
D03*
D15*
X4763004Y1450000D02*
D03*
%TF.MD5,9d50e6a6a3e3db3886b5ada811c71b53*%
M02*
