G04*
G04 #@! TF.GenerationSoftware,Altium Limited,Altium Designer,23.9.2 (47)*
G04*
G04 Layer_Color=2752767*
%FSLAX44Y44*%
%MOMM*%
G71*
G04*
G04 #@! TF.SameCoordinates,46B5A302-6E6C-404E-93B2-20E072586C78*
G04*
G04*
G04 #@! TF.FilePolarity,Positive*
G04*
G01*
G75*
%ADD11C,0.1270*%
%ADD24C,0.1693*%
D11*
X392420Y416320D02*
Y426480D01*
X402580D01*
Y416320D01*
X392420D01*
X240020D02*
Y426480D01*
X250180D01*
Y416320D01*
X240020D01*
Y9920D02*
Y20080D01*
X250180D01*
Y9920D01*
X240020D01*
X392420D02*
Y20080D01*
X402580D01*
Y9920D01*
X392420D01*
X465000Y273620D02*
X467540Y276160D01*
X470080D01*
X467540Y278700D01*
X470080Y281240D01*
X467540D01*
X465000Y283780D01*
X462460Y281240D01*
X459920D01*
X462460Y278700D01*
X459920Y276160D01*
X462460D01*
X465000Y273620D01*
Y197420D02*
X467540Y199960D01*
X470080D01*
X467540Y202500D01*
X470080Y205040D01*
X467540D01*
X465000Y207580D01*
X462460Y205040D01*
X459920D01*
X462460Y202500D01*
X459920Y199960D01*
X462460D01*
X465000Y197420D01*
X476300Y89120D02*
X471220Y99280D01*
X481380D01*
X476300Y89120D01*
Y114520D02*
X471220Y124680D01*
X481380D01*
X476300Y114520D01*
Y63720D02*
X471220Y73880D01*
X481380D01*
X476300Y63720D01*
Y139920D02*
X471220Y150080D01*
X481380D01*
X476300Y139920D01*
X555000Y63720D02*
X549920Y73880D01*
X560080D01*
X555000Y63720D01*
Y139920D02*
X549920Y150080D01*
X560080D01*
X555000Y139920D01*
Y89120D02*
X549920Y99280D01*
X560080D01*
X555000Y89120D01*
Y114520D02*
X549920Y124680D01*
X560080D01*
X555000Y114520D01*
X512500Y401120D02*
X515040Y403660D01*
X517580D01*
X515040Y406200D01*
X517580Y408740D01*
X515040D01*
X512500Y411280D01*
X509960Y408740D01*
X507420D01*
X509960Y406200D01*
X507420Y403660D01*
X509960D01*
X512500Y401120D01*
Y324920D02*
X515040Y327460D01*
X517580D01*
X515040Y330000D01*
X517580Y332540D01*
X515040D01*
X512500Y335080D01*
X509960Y332540D01*
X507420D01*
X509960Y330000D01*
X507420Y327460D01*
X509960D01*
X512500Y324920D01*
Y197420D02*
X515040Y199960D01*
X517580D01*
X515040Y202500D01*
X517580Y205040D01*
X515040D01*
X512500Y207580D01*
X509960Y205040D01*
X507420D01*
X509960Y202500D01*
X507420Y199960D01*
X509960D01*
X512500Y197420D01*
Y273620D02*
X515040Y276160D01*
X517580D01*
X515040Y278700D01*
X517580Y281240D01*
X515040D01*
X512500Y283780D01*
X509960Y281240D01*
X507420D01*
X509960Y278700D01*
X507420Y276160D01*
X509960D01*
X512500Y273620D01*
X130000Y107420D02*
X132540Y109960D01*
X135080D01*
X132540Y112500D01*
X135080Y115040D01*
X132540D01*
X130000Y117580D01*
X127460Y115040D01*
X124920D01*
X127460Y112500D01*
X124920Y109960D01*
X127460D01*
X130000Y107420D01*
X53800D02*
X56340Y109960D01*
X58880D01*
X56340Y112500D01*
X58880Y115040D01*
X56340D01*
X53800Y117580D01*
X51260Y115040D01*
X48720D01*
X51260Y112500D01*
X48720Y109960D01*
X51260D01*
X53800Y107420D01*
X130000Y262420D02*
X132540Y264960D01*
X135080D01*
X132540Y267500D01*
X135080Y270040D01*
X132540D01*
X130000Y272580D01*
X127460Y270040D01*
X124920D01*
X127460Y267500D01*
X124920Y264960D01*
X127460D01*
X130000Y262420D01*
X53800D02*
X56340Y264960D01*
X58880D01*
X56340Y267500D01*
X58880Y270040D01*
X56340D01*
X53800Y272580D01*
X51260Y270040D01*
X48720D01*
X51260Y267500D01*
X48720Y264960D01*
X51260D01*
X53800Y262420D01*
Y214920D02*
X56340Y217460D01*
X58880D01*
X56340Y220000D01*
X58880Y222540D01*
X56340D01*
X53800Y225080D01*
X51260Y222540D01*
X48720D01*
X51260Y220000D01*
X48720Y217460D01*
X51260D01*
X53800Y214920D01*
X130000D02*
X132540Y217460D01*
X135080D01*
X132540Y220000D01*
X135080Y222540D01*
X132540D01*
X130000Y225080D01*
X127460Y222540D01*
X124920D01*
X127460Y220000D01*
X124920Y217460D01*
X127460D01*
X130000Y214920D01*
Y52420D02*
X132540Y54960D01*
X135080D01*
X132540Y57500D01*
X135080Y60040D01*
X132540D01*
X130000Y62580D01*
X127460Y60040D01*
X124920D01*
X127460Y57500D01*
X124920Y54960D01*
X127460D01*
X130000Y52420D01*
X53800D02*
X56340Y54960D01*
X58880D01*
X56340Y57500D01*
X58880Y60040D01*
X56340D01*
X53800Y62580D01*
X51260Y60040D01*
X48720D01*
X51260Y57500D01*
X48720Y54960D01*
X51260D01*
X53800Y52420D01*
D24*
X250180Y40400D02*
G03*
X250180Y40400I-5080J0D01*
G01*
Y65800D02*
G03*
X250180Y65800I-5080J0D01*
G01*
Y91200D02*
G03*
X250180Y91200I-5080J0D01*
G01*
Y116600D02*
G03*
X250180Y116600I-5080J0D01*
G01*
Y142000D02*
G03*
X250180Y142000I-5080J0D01*
G01*
Y167400D02*
G03*
X250180Y167400I-5080J0D01*
G01*
Y192800D02*
G03*
X250180Y192800I-5080J0D01*
G01*
Y218200D02*
G03*
X250180Y218200I-5080J0D01*
G01*
Y243600D02*
G03*
X250180Y243600I-5080J0D01*
G01*
Y269000D02*
G03*
X250180Y269000I-5080J0D01*
G01*
Y294400D02*
G03*
X250180Y294400I-5080J0D01*
G01*
Y319800D02*
G03*
X250180Y319800I-5080J0D01*
G01*
Y345200D02*
G03*
X250180Y345200I-5080J0D01*
G01*
Y370600D02*
G03*
X250180Y370600I-5080J0D01*
G01*
Y396000D02*
G03*
X250180Y396000I-5080J0D01*
G01*
X402580D02*
G03*
X402580Y396000I-5080J0D01*
G01*
Y370600D02*
G03*
X402580Y370600I-5080J0D01*
G01*
Y345200D02*
G03*
X402580Y345200I-5080J0D01*
G01*
Y319800D02*
G03*
X402580Y319800I-5080J0D01*
G01*
Y294400D02*
G03*
X402580Y294400I-5080J0D01*
G01*
Y269000D02*
G03*
X402580Y269000I-5080J0D01*
G01*
Y243600D02*
G03*
X402580Y243600I-5080J0D01*
G01*
Y218200D02*
G03*
X402580Y218200I-5080J0D01*
G01*
Y192800D02*
G03*
X402580Y192800I-5080J0D01*
G01*
Y167400D02*
G03*
X402580Y167400I-5080J0D01*
G01*
Y142000D02*
G03*
X402580Y142000I-5080J0D01*
G01*
Y116600D02*
G03*
X402580Y116600I-5080J0D01*
G01*
Y91200D02*
G03*
X402580Y91200I-5080J0D01*
G01*
Y65800D02*
G03*
X402580Y65800I-5080J0D01*
G01*
Y40400D02*
G03*
X402580Y40400I-5080J0D01*
G01*
M02*
