G04*
G04 #@! TF.GenerationSoftware,Altium Limited,Altium Designer,23.9.2 (47)*
G04*
G04 Layer_Color=65535*
%FSLAX44Y44*%
%MOMM*%
G71*
G04*
G04 #@! TF.SameCoordinates,46B5A302-6E6C-404E-93B2-20E072586C78*
G04*
G04*
G04 #@! TF.FilePolarity,Positive*
G04*
G01*
G75*
%ADD10C,0.2000*%
%ADD11C,0.1270*%
%ADD12C,0.2540*%
D10*
X417300Y40400D02*
G03*
X417300Y40400I-1000J0D01*
G01*
X468150Y155400D02*
G03*
X468150Y155400I-1000J0D01*
G01*
D11*
X232400Y2300D02*
X410200D01*
X232400D02*
Y434100D01*
X410200D01*
Y2300D02*
Y434100D01*
X483850Y154900D02*
X547450D01*
X483850Y58900D02*
X547450D01*
D12*
X453570Y184720D02*
X476430D01*
X453570Y296480D02*
X476430D01*
X453570Y184720D02*
Y296480D01*
X476430Y184720D02*
Y296480D01*
X501070Y312220D02*
X523930D01*
X501070Y423980D02*
X523930D01*
X501070Y312220D02*
Y423980D01*
X523930Y312220D02*
Y423980D01*
X501070Y296480D02*
X523930D01*
X501070Y184720D02*
X523930D01*
Y296480D01*
X501070Y184720D02*
Y296480D01*
X36020Y123930D02*
X147780D01*
X36020Y101070D02*
X147780D01*
X36020D02*
Y123930D01*
X147780Y101070D02*
Y123930D01*
X147780Y256070D02*
Y278930D01*
X36020Y256070D02*
Y278930D01*
Y256070D02*
X147780D01*
X36020Y278930D02*
X147780D01*
Y208570D02*
Y231430D01*
X36020Y208570D02*
Y231430D01*
Y208570D02*
X147780D01*
X36020Y231430D02*
X147780D01*
Y46070D02*
Y68930D01*
X36020Y46070D02*
Y68930D01*
Y46070D02*
X147780D01*
X36020Y68930D02*
X147780D01*
X317578Y109193D02*
X307422D01*
X302343Y114271D01*
X307422Y119350D01*
X317578D01*
X309961D01*
Y109193D01*
X307422Y124428D02*
X317578D01*
X312500D01*
X309961Y126967D01*
X307422Y129507D01*
Y132046D01*
X302343Y149820D02*
X317578D01*
Y142203D01*
X315039Y139663D01*
X309961D01*
X307422Y142203D01*
Y149820D01*
Y154898D02*
X315039D01*
X317578Y157437D01*
Y165055D01*
X307422D01*
X317578Y170133D02*
Y175212D01*
Y172673D01*
X307422D01*
Y170133D01*
X317578Y182829D02*
X307422D01*
Y190447D01*
X309961Y192986D01*
X317578D01*
Y200604D02*
Y205682D01*
X315039Y208221D01*
X309961D01*
X307422Y205682D01*
Y200604D01*
X309961Y198064D01*
X315039D01*
X317578Y200604D01*
Y228535D02*
X302343D01*
X317578Y238691D01*
X302343D01*
X307422Y246309D02*
Y251387D01*
X309961Y253926D01*
X317578D01*
Y246309D01*
X315039Y243770D01*
X312500Y246309D01*
Y253926D01*
X317578Y259005D02*
X307422D01*
Y266622D01*
X309961Y269161D01*
X317578D01*
Y276779D02*
Y281857D01*
X315039Y284396D01*
X309961D01*
X307422Y281857D01*
Y276779D01*
X309961Y274240D01*
X315039D01*
X317578Y276779D01*
X302343Y314867D02*
Y304710D01*
X317578D01*
Y314867D01*
X309961Y304710D02*
Y309788D01*
X307422Y319945D02*
X317578Y325023D01*
X307422Y330102D01*
X317578Y342798D02*
Y337719D01*
X315039Y335180D01*
X309961D01*
X307422Y337719D01*
Y342798D01*
X309961Y345337D01*
X312500D01*
Y335180D01*
X307422Y350415D02*
X317578D01*
X312500D01*
X309961Y352954D01*
X307422Y355493D01*
Y358033D01*
Y365650D02*
X315039D01*
X317578Y368189D01*
Y375807D01*
X320117D01*
X322657Y373268D01*
Y370728D01*
X317578Y375807D02*
X307422D01*
X436668Y209178D02*
X435002Y207512D01*
Y204180D01*
X436668Y202514D01*
X443332D01*
X444998Y204180D01*
Y207512D01*
X443332Y209178D01*
X436668Y212511D02*
X435002Y214177D01*
Y217509D01*
X436668Y219175D01*
X438334D01*
X440000Y217509D01*
Y215843D01*
Y217509D01*
X441666Y219175D01*
X443332D01*
X444998Y217509D01*
Y214177D01*
X443332Y212511D01*
X444998Y232504D02*
Y235836D01*
Y234170D01*
X435002D01*
X436668Y232504D01*
Y240835D02*
X435002Y242501D01*
Y245833D01*
X436668Y247499D01*
X443332D01*
X444998Y245833D01*
Y242501D01*
X443332Y240835D01*
X436668D01*
Y250832D02*
X435002Y252498D01*
Y255830D01*
X436668Y257496D01*
X443332D01*
X444998Y255830D01*
Y252498D01*
X443332Y250832D01*
X436668D01*
X444998Y270825D02*
X438334D01*
Y275823D01*
X440000Y277489D01*
X444998D01*
X435002Y287486D02*
Y280822D01*
X440000D01*
Y284154D01*
Y280822D01*
X444998D01*
X460017Y32502D02*
Y42498D01*
X463349Y39166D01*
X466681Y42498D01*
Y32502D01*
X476678Y40832D02*
X475012Y42498D01*
X471680D01*
X470014Y40832D01*
Y34168D01*
X471680Y32502D01*
X475012D01*
X476678Y34168D01*
X480010Y32502D02*
Y42498D01*
X485009D01*
X486675Y40832D01*
Y37500D01*
X485009Y35834D01*
X480010D01*
X496672Y42498D02*
X493340Y40832D01*
X490007Y37500D01*
Y34168D01*
X491673Y32502D01*
X495006D01*
X496672Y34168D01*
Y35834D01*
X495006Y37500D01*
X490007D01*
X500004Y40832D02*
X501670Y42498D01*
X505002D01*
X506669Y40832D01*
Y34168D01*
X505002Y32502D01*
X501670D01*
X500004Y34168D01*
Y40832D01*
X510001D02*
X511667Y42498D01*
X514999D01*
X516665Y40832D01*
Y34168D01*
X514999Y32502D01*
X511667D01*
X510001Y34168D01*
Y40832D01*
X526662Y32502D02*
X519998D01*
X526662Y39166D01*
Y40832D01*
X524996Y42498D01*
X521664D01*
X519998Y40832D01*
X529994Y37500D02*
X536659D01*
X539991Y42498D02*
X543323D01*
X541657D01*
Y32502D01*
X539991D01*
X543323D01*
X548322D02*
X554986Y39166D01*
X558319Y32502D02*
Y42498D01*
X563317D01*
X564983Y40832D01*
Y37500D01*
X563317Y35834D01*
X558319D01*
X547498Y368337D02*
X537502D01*
Y373335D01*
X539168Y375002D01*
X542500D01*
X544166Y373335D01*
Y368337D01*
X539168Y384998D02*
X537502Y383332D01*
Y380000D01*
X539168Y378334D01*
X540834D01*
X542500Y380000D01*
Y383332D01*
X544166Y384998D01*
X545832D01*
X547498Y383332D01*
Y380000D01*
X545832Y378334D01*
X547498Y388331D02*
Y391663D01*
Y389997D01*
X537502D01*
X539168Y388331D01*
X544998Y221671D02*
X535002D01*
Y226669D01*
X536668Y228335D01*
X540000D01*
X541666Y226669D01*
Y221671D01*
X536668Y238332D02*
X535002Y236666D01*
Y233334D01*
X536668Y231668D01*
X538334D01*
X540000Y233334D01*
Y236666D01*
X541666Y238332D01*
X543332D01*
X544998Y236666D01*
Y233334D01*
X543332Y231668D01*
X544998Y248329D02*
Y241665D01*
X538334Y248329D01*
X536668D01*
X535002Y246663D01*
Y243331D01*
X536668Y241665D01*
X84169Y137502D02*
Y147498D01*
X89168D01*
X90834Y145832D01*
Y142500D01*
X89168Y140834D01*
X84169D01*
X87502D02*
X90834Y137502D01*
X100831D02*
X94166D01*
X100831Y144166D01*
Y145832D01*
X99164Y147498D01*
X95832D01*
X94166Y145832D01*
X65011Y195832D02*
X63345Y197498D01*
X60013D01*
X58347Y195832D01*
Y189168D01*
X60013Y187502D01*
X63345D01*
X65011Y189168D01*
X68344Y187502D02*
X71676D01*
X70010D01*
Y197498D01*
X68344Y195832D01*
X86671Y187502D02*
X90003D01*
X88337D01*
Y197498D01*
X86671Y195832D01*
X95002D02*
X96668Y197498D01*
X100000D01*
X101666Y195832D01*
Y189168D01*
X100000Y187502D01*
X96668D01*
X95002Y189168D01*
Y195832D01*
X104998D02*
X106664Y197498D01*
X109997D01*
X111663Y195832D01*
Y189168D01*
X109997Y187502D01*
X106664D01*
X104998Y189168D01*
Y195832D01*
X124992Y187502D02*
Y194166D01*
X129990D01*
X131657Y192500D01*
Y187502D01*
X141653Y197498D02*
X134989D01*
Y192500D01*
X138321D01*
X134989D01*
Y187502D01*
X56678Y33332D02*
X55012Y34998D01*
X51680D01*
X50014Y33332D01*
Y26668D01*
X51680Y25002D01*
X55012D01*
X56678Y26668D01*
X66675Y25002D02*
X60010D01*
X66675Y31666D01*
Y33332D01*
X65009Y34998D01*
X61677D01*
X60010Y33332D01*
X80004Y25002D02*
X83336D01*
X81670D01*
Y34998D01*
X80004Y33332D01*
X88335D02*
X90001Y34998D01*
X93333D01*
X94999Y33332D01*
Y26668D01*
X93333Y25002D01*
X90001D01*
X88335Y26668D01*
Y33332D01*
X98331D02*
X99998Y34998D01*
X103330D01*
X104996Y33332D01*
Y26668D01*
X103330Y25002D01*
X99998D01*
X98331Y26668D01*
Y33332D01*
X118325Y25002D02*
Y31666D01*
X123323D01*
X124990Y30000D01*
Y25002D01*
X134986Y34998D02*
X128322D01*
Y30000D01*
X131654D01*
X128322D01*
Y25002D01*
X532540Y328372D02*
X539204D01*
X535872Y331704D02*
Y325040D01*
X532540Y278372D02*
X539204D01*
X535872Y281705D02*
Y275040D01*
X90836Y290002D02*
Y299998D01*
X95834D01*
X97500Y298332D01*
Y295000D01*
X95834Y293334D01*
X90836D01*
X94168D02*
X97500Y290002D01*
X100832D02*
X104164D01*
X102498D01*
Y299998D01*
X100832Y298332D01*
M02*
