G04*
G04 #@! TF.GenerationSoftware,Altium Limited,Altium Designer,23.9.2 (47)*
G04*
G04 Layer_Physical_Order=2*
G04 Layer_Color=16711680*
%FSLAX44Y44*%
%MOMM*%
G71*
G04*
G04 #@! TF.SameCoordinates,46B5A302-6E6C-404E-93B2-20E072586C78*
G04*
G04*
G04 #@! TF.FilePolarity,Positive*
G04*
G01*
G75*
%ADD12C,0.2540*%
%ADD18C,1.6510*%
%ADD19C,1.5240*%
%ADD20R,1.5240X1.5240*%
%ADD21C,1.3080*%
%ADD22R,1.3080X1.3080*%
D12*
X446012Y116488D02*
Y116600D01*
Y116488D02*
X455000Y107500D01*
X517500D01*
X397500Y116600D02*
X446012D01*
X517500Y107500D02*
X529600Y119600D01*
X555000D01*
X397500Y370600D02*
X465000Y303100D01*
Y278700D02*
Y303100D01*
D18*
X397500Y421400D02*
D03*
X245100D02*
D03*
Y15000D02*
D03*
X397500D02*
D03*
D19*
X245100Y40400D02*
D03*
Y65800D02*
D03*
Y91200D02*
D03*
Y116600D02*
D03*
Y142000D02*
D03*
Y167400D02*
D03*
Y192800D02*
D03*
Y218200D02*
D03*
Y243600D02*
D03*
Y269000D02*
D03*
Y294400D02*
D03*
Y319800D02*
D03*
Y345200D02*
D03*
Y370600D02*
D03*
Y396000D02*
D03*
X397500D02*
D03*
Y370600D02*
D03*
Y345200D02*
D03*
Y319800D02*
D03*
Y294400D02*
D03*
Y269000D02*
D03*
Y243600D02*
D03*
Y218200D02*
D03*
Y192800D02*
D03*
Y167400D02*
D03*
Y142000D02*
D03*
Y116600D02*
D03*
Y91200D02*
D03*
Y65800D02*
D03*
X465000Y278700D02*
D03*
Y202500D02*
D03*
X512500Y406200D02*
D03*
Y330000D02*
D03*
Y202500D02*
D03*
Y278700D02*
D03*
X130000Y112500D02*
D03*
X53800D02*
D03*
X130000Y267500D02*
D03*
X53800D02*
D03*
Y220000D02*
D03*
X130000D02*
D03*
Y57500D02*
D03*
X53800D02*
D03*
D20*
X397500Y40400D02*
D03*
D21*
X476300Y94200D02*
D03*
Y119600D02*
D03*
Y68800D02*
D03*
X555000D02*
D03*
Y145000D02*
D03*
Y94200D02*
D03*
Y119600D02*
D03*
D22*
X476300Y145000D02*
D03*
M02*
