%TF.GenerationSoftware,Altium Limited,Altium Designer,23.9.2 (47)*%
G04 Layer_Color=0*
%FSLAX45Y45*%
%MOMM*%
%TF.SameCoordinates,069DA617-DDAF-4FD6-95A1-D134820B9D42*%
%TF.FilePolarity,Positive*%
%TF.FileFunction,Plated,1,2,PTH,Drill*%
%TF.Part,Single*%
G01*
G75*
%TA.AperFunction,ComponentDrill*%
%ADD27C,1.01600*%
%ADD28C,0.76200*%
%ADD29C,0.80000*%
%ADD30C,0.76200*%
D27*
X2450999Y404002D02*
D03*
Y658002D02*
D03*
Y912002D02*
D03*
Y1166002D02*
D03*
Y1420002D02*
D03*
Y1674002D02*
D03*
Y1928002D02*
D03*
Y2182002D02*
D03*
Y2436002D02*
D03*
Y2690002D02*
D03*
Y2944002D02*
D03*
Y3198002D02*
D03*
Y3452002D02*
D03*
Y3706002D02*
D03*
Y3960002D02*
D03*
X3974999D02*
D03*
Y3706002D02*
D03*
Y3452002D02*
D03*
Y3198002D02*
D03*
Y2944002D02*
D03*
Y2690002D02*
D03*
Y2436002D02*
D03*
Y2182002D02*
D03*
Y1928002D02*
D03*
Y1674002D02*
D03*
Y1420002D02*
D03*
Y1166002D02*
D03*
Y912002D02*
D03*
Y658002D02*
D03*
Y404002D02*
D03*
D28*
X4649998Y2787000D02*
D03*
Y2025000D02*
D03*
X5125000Y4061999D02*
D03*
Y3299999D02*
D03*
Y2025000D02*
D03*
Y2787000D02*
D03*
D29*
X4763004Y942000D02*
D03*
Y1196000D02*
D03*
Y688000D02*
D03*
Y1450000D02*
D03*
X5550003Y688000D02*
D03*
Y1450000D02*
D03*
Y942000D02*
D03*
Y1196000D02*
D03*
D30*
X1300003Y1124997D02*
D03*
X538003D02*
D03*
X1299998Y2675001D02*
D03*
X537998D02*
D03*
Y2200001D02*
D03*
X1299998D02*
D03*
Y575000D02*
D03*
X537998D02*
D03*
%TF.MD5,ec09b764ac4b57bb817a2817d13d2e36*%
M02*
