%TF.GenerationSoftware,Altium Limited,Altium Designer,23.9.2 (47)*%
G04 Layer_Color=2752767*
%FSLAX45Y45*%
%MOMM*%
%TF.SameCoordinates,069DA617-DDAF-4FD6-95A1-D134820B9D42*%
%TF.FilePolarity,Positive*%
%TF.FileFunction,Drawing*%
%TF.Part,Single*%
G01*
G75*
%TA.AperFunction,NonConductor*%
%ADD17C,0.12700*%
%ADD32C,0.16933*%
D17*
X3924199Y4163202D02*
Y4264802D01*
X4025799D01*
Y4163202D01*
X3924199D01*
X2400199D02*
Y4264802D01*
X2501799D01*
Y4163202D01*
X2400199D01*
Y99202D02*
Y200802D01*
X2501799D01*
Y99202D01*
X2400199D01*
X3924199D02*
Y200802D01*
X4025799D01*
Y99202D01*
X3924199D01*
X4649998Y2736200D02*
X4675398Y2761600D01*
X4700798D01*
X4675398Y2787000D01*
X4700798Y2812400D01*
X4675398D01*
X4649998Y2837800D01*
X4624598Y2812400D01*
X4599198D01*
X4624598Y2787000D01*
X4599198Y2761600D01*
X4624598D01*
X4649998Y2736200D01*
Y1974200D02*
X4675398Y1999600D01*
X4700798D01*
X4675398Y2025000D01*
X4700798Y2050400D01*
X4675398D01*
X4649998Y2075800D01*
X4624598Y2050400D01*
X4599198D01*
X4624598Y2025000D01*
X4599198Y1999600D01*
X4624598D01*
X4649998Y1974200D01*
X4763004Y891200D02*
X4712204Y992800D01*
X4813804D01*
X4763004Y891200D01*
Y1145200D02*
X4712204Y1246800D01*
X4813804D01*
X4763004Y1145200D01*
Y637200D02*
X4712204Y738800D01*
X4813804D01*
X4763004Y637200D01*
Y1399200D02*
X4712204Y1500800D01*
X4813804D01*
X4763004Y1399200D01*
X5550003Y637200D02*
X5499203Y738800D01*
X5600803D01*
X5550003Y637200D01*
Y1399200D02*
X5499203Y1500800D01*
X5600803D01*
X5550003Y1399200D01*
Y891200D02*
X5499203Y992800D01*
X5600803D01*
X5550003Y891200D01*
Y1145200D02*
X5499203Y1246800D01*
X5600803D01*
X5550003Y1145200D01*
X5125000Y4011199D02*
X5150400Y4036599D01*
X5175800D01*
X5150400Y4061999D01*
X5175800Y4087399D01*
X5150400D01*
X5125000Y4112799D01*
X5099600Y4087399D01*
X5074200D01*
X5099600Y4061999D01*
X5074200Y4036599D01*
X5099600D01*
X5125000Y4011199D01*
Y3249199D02*
X5150400Y3274599D01*
X5175800D01*
X5150400Y3299999D01*
X5175800Y3325399D01*
X5150400D01*
X5125000Y3350799D01*
X5099600Y3325399D01*
X5074200D01*
X5099600Y3299999D01*
X5074200Y3274599D01*
X5099600D01*
X5125000Y3249199D01*
Y1974200D02*
X5150400Y1999600D01*
X5175800D01*
X5150400Y2025000D01*
X5175800Y2050400D01*
X5150400D01*
X5125000Y2075800D01*
X5099600Y2050400D01*
X5074200D01*
X5099600Y2025000D01*
X5074200Y1999600D01*
X5099600D01*
X5125000Y1974200D01*
Y2736200D02*
X5150400Y2761600D01*
X5175800D01*
X5150400Y2787000D01*
X5175800Y2812400D01*
X5150400D01*
X5125000Y2837800D01*
X5099600Y2812400D01*
X5074200D01*
X5099600Y2787000D01*
X5074200Y2761600D01*
X5099600D01*
X5125000Y2736200D01*
X1300003Y1074197D02*
X1325403Y1099597D01*
X1350803D01*
X1325403Y1124997D01*
X1350803Y1150397D01*
X1325403D01*
X1300003Y1175797D01*
X1274603Y1150397D01*
X1249203D01*
X1274603Y1124997D01*
X1249203Y1099597D01*
X1274603D01*
X1300003Y1074197D01*
X538003D02*
X563403Y1099597D01*
X588803D01*
X563403Y1124997D01*
X588803Y1150397D01*
X563403D01*
X538003Y1175797D01*
X512603Y1150397D01*
X487203D01*
X512603Y1124997D01*
X487203Y1099597D01*
X512603D01*
X538003Y1074197D01*
X1299998Y2624201D02*
X1325398Y2649601D01*
X1350798D01*
X1325398Y2675001D01*
X1350798Y2700401D01*
X1325398D01*
X1299998Y2725801D01*
X1274598Y2700401D01*
X1249198D01*
X1274598Y2675001D01*
X1249198Y2649601D01*
X1274598D01*
X1299998Y2624201D01*
X537998D02*
X563398Y2649601D01*
X588798D01*
X563398Y2675001D01*
X588798Y2700401D01*
X563398D01*
X537998Y2725801D01*
X512598Y2700401D01*
X487198D01*
X512598Y2675001D01*
X487198Y2649601D01*
X512598D01*
X537998Y2624201D01*
Y2149201D02*
X563398Y2174601D01*
X588798D01*
X563398Y2200001D01*
X588798Y2225401D01*
X563398D01*
X537998Y2250801D01*
X512598Y2225401D01*
X487198D01*
X512598Y2200001D01*
X487198Y2174601D01*
X512598D01*
X537998Y2149201D01*
X1299998D02*
X1325398Y2174601D01*
X1350798D01*
X1325398Y2200001D01*
X1350798Y2225401D01*
X1325398D01*
X1299998Y2250801D01*
X1274598Y2225401D01*
X1249198D01*
X1274598Y2200001D01*
X1249198Y2174601D01*
X1274598D01*
X1299998Y2149201D01*
Y524200D02*
X1325398Y549600D01*
X1350798D01*
X1325398Y575000D01*
X1350798Y600400D01*
X1325398D01*
X1299998Y625800D01*
X1274598Y600400D01*
X1249198D01*
X1274598Y575000D01*
X1249198Y549600D01*
X1274598D01*
X1299998Y524200D01*
X537998D02*
X563398Y549600D01*
X588798D01*
X563398Y575000D01*
X588798Y600400D01*
X563398D01*
X537998Y625800D01*
X512598Y600400D01*
X487198D01*
X512598Y575000D01*
X487198Y549600D01*
X512598D01*
X537998Y524200D01*
D32*
X2501799Y404002D02*
G03*
X2501799Y404002I-50800J0D01*
G01*
Y658002D02*
G03*
X2501799Y658002I-50800J0D01*
G01*
Y912002D02*
G03*
X2501799Y912002I-50800J0D01*
G01*
Y1166002D02*
G03*
X2501799Y1166002I-50800J0D01*
G01*
Y1420002D02*
G03*
X2501799Y1420002I-50800J0D01*
G01*
Y1674002D02*
G03*
X2501799Y1674002I-50800J0D01*
G01*
Y1928002D02*
G03*
X2501799Y1928002I-50800J0D01*
G01*
Y2182002D02*
G03*
X2501799Y2182002I-50800J0D01*
G01*
Y2436002D02*
G03*
X2501799Y2436002I-50800J0D01*
G01*
Y2690002D02*
G03*
X2501799Y2690002I-50800J0D01*
G01*
Y2944002D02*
G03*
X2501799Y2944002I-50800J0D01*
G01*
Y3198002D02*
G03*
X2501799Y3198002I-50800J0D01*
G01*
Y3452002D02*
G03*
X2501799Y3452002I-50800J0D01*
G01*
Y3706002D02*
G03*
X2501799Y3706002I-50800J0D01*
G01*
Y3960002D02*
G03*
X2501799Y3960002I-50800J0D01*
G01*
X4025799D02*
G03*
X4025799Y3960002I-50800J0D01*
G01*
Y3706002D02*
G03*
X4025799Y3706002I-50800J0D01*
G01*
Y3452002D02*
G03*
X4025799Y3452002I-50800J0D01*
G01*
Y3198002D02*
G03*
X4025799Y3198002I-50800J0D01*
G01*
Y2944002D02*
G03*
X4025799Y2944002I-50800J0D01*
G01*
Y2690002D02*
G03*
X4025799Y2690002I-50800J0D01*
G01*
Y2436002D02*
G03*
X4025799Y2436002I-50800J0D01*
G01*
Y2182002D02*
G03*
X4025799Y2182002I-50800J0D01*
G01*
Y1928002D02*
G03*
X4025799Y1928002I-50800J0D01*
G01*
Y1674002D02*
G03*
X4025799Y1674002I-50800J0D01*
G01*
Y1420002D02*
G03*
X4025799Y1420002I-50800J0D01*
G01*
Y1166002D02*
G03*
X4025799Y1166002I-50800J0D01*
G01*
Y912002D02*
G03*
X4025799Y912002I-50800J0D01*
G01*
Y658002D02*
G03*
X4025799Y658002I-50800J0D01*
G01*
Y404002D02*
G03*
X4025799Y404002I-50800J0D01*
G01*
%TF.MD5,cdac6a1b40e7aae6696b2154b1f1847d*%
M02*
