G04*
G04 #@! TF.GenerationSoftware,Altium Limited,Altium Designer,23.9.2 (47)*
G04*
G04 Layer_Color=128*
%FSLAX44Y44*%
%MOMM*%
G71*
G04*
G04 #@! TF.SameCoordinates,46B5A302-6E6C-404E-93B2-20E072586C78*
G04*
G04*
G04 #@! TF.FilePolarity,Positive*
G04*
G01*
G75*
%ADD11C,0.1270*%
D11*
X389245Y421400D02*
X405755D01*
X397500Y413145D02*
Y429655D01*
X236845Y421400D02*
X253355D01*
X245100Y413145D02*
Y429655D01*
X236845Y15000D02*
X253355D01*
X245100Y6745D02*
Y23255D01*
X389245Y15000D02*
X405755D01*
X397500Y6745D02*
Y23255D01*
X240020Y40400D02*
X250180D01*
X245100Y35320D02*
Y45480D01*
X240020Y65800D02*
X250180D01*
X245100Y60720D02*
Y70880D01*
X240020Y91200D02*
X250180D01*
X245100Y86120D02*
Y96280D01*
X240020Y116600D02*
X250180D01*
X245100Y111520D02*
Y121680D01*
X240020Y142000D02*
X250180D01*
X245100Y136920D02*
Y147080D01*
X240020Y167400D02*
X250180D01*
X245100Y162320D02*
Y172480D01*
X240020Y192800D02*
X250180D01*
X245100Y187720D02*
Y197880D01*
X240020Y218200D02*
X250180D01*
X245100Y213120D02*
Y223280D01*
X240020Y243600D02*
X250180D01*
X245100Y238520D02*
Y248680D01*
X240020Y269000D02*
X250180D01*
X245100Y263920D02*
Y274080D01*
X240020Y294400D02*
X250180D01*
X245100Y289320D02*
Y299480D01*
X240020Y319800D02*
X250180D01*
X245100Y314720D02*
Y324880D01*
X240020Y345200D02*
X250180D01*
X245100Y340120D02*
Y350280D01*
X240020Y370600D02*
X250180D01*
X245100Y365520D02*
Y375680D01*
X240020Y396000D02*
X250180D01*
X245100Y390920D02*
Y401080D01*
X392420Y396000D02*
X402580D01*
X397500Y390920D02*
Y401080D01*
X392420Y370600D02*
X402580D01*
X397500Y365520D02*
Y375680D01*
X392420Y345200D02*
X402580D01*
X397500Y340120D02*
Y350280D01*
X392420Y319800D02*
X402580D01*
X397500Y314720D02*
Y324880D01*
X392420Y294400D02*
X402580D01*
X397500Y289320D02*
Y299480D01*
X392420Y269000D02*
X402580D01*
X397500Y263920D02*
Y274080D01*
X392420Y243600D02*
X402580D01*
X397500Y238520D02*
Y248680D01*
X392420Y218200D02*
X402580D01*
X397500Y213120D02*
Y223280D01*
X392420Y192800D02*
X402580D01*
X397500Y187720D02*
Y197880D01*
X392420Y167400D02*
X402580D01*
X397500Y162320D02*
Y172480D01*
X392420Y142000D02*
X402580D01*
X397500Y136920D02*
Y147080D01*
X392420Y116600D02*
X402580D01*
X397500Y111520D02*
Y121680D01*
X392420Y91200D02*
X402580D01*
X397500Y86120D02*
Y96280D01*
X392420Y65800D02*
X402580D01*
X397500Y60720D02*
Y70880D01*
X392420Y40400D02*
X402580D01*
X397500Y35320D02*
Y45480D01*
X461190Y278700D02*
X468810D01*
X465000Y274890D02*
Y282510D01*
X461190Y202500D02*
X468810D01*
X465000Y198690D02*
Y206310D01*
X472300Y94200D02*
X480300D01*
X476300Y90200D02*
Y98200D01*
X472300Y119600D02*
X480300D01*
X476300Y115600D02*
Y123600D01*
X472300Y68800D02*
X480300D01*
X476300Y64800D02*
Y72800D01*
X472300Y145000D02*
X480300D01*
X476300Y141000D02*
Y149000D01*
X551000Y68800D02*
X559000D01*
X555000Y64800D02*
Y72800D01*
X551000Y145000D02*
X559000D01*
X555000Y141000D02*
Y149000D01*
X551000Y94200D02*
X559000D01*
X555000Y90200D02*
Y98200D01*
X551000Y119600D02*
X559000D01*
X555000Y115600D02*
Y123600D01*
X508690Y406200D02*
X516310D01*
X512500Y402390D02*
Y410010D01*
X508690Y330000D02*
X516310D01*
X512500Y326190D02*
Y333810D01*
X508690Y202500D02*
X516310D01*
X512500Y198690D02*
Y206310D01*
X508690Y278700D02*
X516310D01*
X512500Y274890D02*
Y282510D01*
X126190Y112500D02*
X133810D01*
X130000Y108690D02*
Y116310D01*
X49990Y112500D02*
X57610D01*
X53800Y108690D02*
Y116310D01*
X126190Y267500D02*
X133810D01*
X130000Y263690D02*
Y271310D01*
X49990Y267500D02*
X57610D01*
X53800Y263690D02*
Y271310D01*
X49990Y220000D02*
X57610D01*
X53800Y216190D02*
Y223810D01*
X126190Y220000D02*
X133810D01*
X130000Y216190D02*
Y223810D01*
X126190Y57500D02*
X133810D01*
X130000Y53690D02*
Y61310D01*
X49990Y57500D02*
X57610D01*
X53800Y53690D02*
Y61310D01*
M02*
