G04*
G04 #@! TF.GenerationSoftware,Altium Limited,Altium Designer,23.9.2 (47)*
G04*
G04 Layer_Color=8388736*
%FSLAX44Y44*%
%MOMM*%
G71*
G04*
G04 #@! TF.SameCoordinates,46B5A302-6E6C-404E-93B2-20E072586C78*
G04*
G04*
G04 #@! TF.FilePolarity,Negative*
G04*
G01*
G75*
%ADD13C,1.8542*%
%ADD14C,1.7272*%
%ADD15R,1.7272X1.7272*%
%ADD16C,1.5112*%
%ADD17R,1.5112X1.5112*%
D13*
X397500Y421400D02*
D03*
X245100D02*
D03*
Y15000D02*
D03*
X397500D02*
D03*
D14*
X245100Y40400D02*
D03*
Y65800D02*
D03*
Y91200D02*
D03*
Y116600D02*
D03*
Y142000D02*
D03*
Y167400D02*
D03*
Y192800D02*
D03*
Y218200D02*
D03*
Y243600D02*
D03*
Y269000D02*
D03*
Y294400D02*
D03*
Y319800D02*
D03*
Y345200D02*
D03*
Y370600D02*
D03*
Y396000D02*
D03*
X397500D02*
D03*
Y370600D02*
D03*
Y345200D02*
D03*
Y319800D02*
D03*
Y294400D02*
D03*
Y269000D02*
D03*
Y243600D02*
D03*
Y218200D02*
D03*
Y192800D02*
D03*
Y167400D02*
D03*
Y142000D02*
D03*
Y116600D02*
D03*
Y91200D02*
D03*
Y65800D02*
D03*
X465000Y278700D02*
D03*
Y202500D02*
D03*
X512500Y406200D02*
D03*
Y330000D02*
D03*
Y202500D02*
D03*
Y278700D02*
D03*
X130000Y112500D02*
D03*
X53800D02*
D03*
X130000Y267500D02*
D03*
X53800D02*
D03*
Y220000D02*
D03*
X130000D02*
D03*
Y57500D02*
D03*
X53800D02*
D03*
D15*
X397500Y40400D02*
D03*
D16*
X476300Y94200D02*
D03*
Y119600D02*
D03*
Y68800D02*
D03*
X555000D02*
D03*
Y145000D02*
D03*
Y94200D02*
D03*
Y119600D02*
D03*
D17*
X476300Y145000D02*
D03*
M02*
